/* XPM */
static char *_5dcfb62959c46be9b926fd0da68224aO4hRs79kEUwf74AB[] = {
/* columns rows colors chars-per-pixel */
"64 64 256 2 ",
"   c #1D111B",
".  c #1A0B13",
"X  c #371802",
"o  c #291619",
"O  c #2D110D",
"+  c #3E2200",
"@  c #1C1225",
"#  c #0F142B",
"$  c #221523",
"%  c #2C1A23",
"&  c #2C1C2C",
"*  c #261827",
"=  c #331D26",
"-  c #291D32",
";  c #351F34",
":  c #2C212D",
">  c #35232C",
",  c #3A242C",
"<  c #382528",
"1  c #2D2336",
"2  c #342434",
"3  c #3A2533",
"4  c #3B2A33",
"5  c #34253B",
"6  c #36293C",
"7  c #3C2B3C",
"8  c #3A273A",
"9  c #3D303C",
"0  c #002637",
"q  c #441803",
"w  c #421C16",
"e  c #562919",
"r  c #4D290C",
"t  c #6A3718",
"y  c #6A3517",
"u  c #45262B",
"i  c #572C27",
"p  c #59332A",
"a  c #432C3C",
"s  c #462A35",
"d  c #48323B",
"f  c #573538",
"g  c #532D33",
"h  c #683826",
"j  c #663C36",
"k  c #753B2A",
"l  c #634806",
"z  c #735115",
"x  c #7D631A",
"c  c #7E640D",
"v  c #784529",
"b  c #6B4338",
"n  c #784837",
"m  c #71502B",
"M  c #7B6524",
"N  c #5F4510",
"B  c #0E304C",
"V  c #292A45",
"C  c #352C43",
"Z  c #3B2D43",
"A  c #372D49",
"S  c #3E3145",
"D  c #3E324B",
"F  c #36334C",
"G  c #2B3554",
"H  c #393856",
"J  c #26344A",
"K  c #353D64",
"L  c #422E44",
"P  c #412E49",
"I  c #433345",
"U  c #4B3444",
"Y  c #43344B",
"T  c #4B364B",
"R  c #46394D",
"E  c #4B3B4D",
"W  c #4B3A46",
"Q  c #543C4C",
"!  c #573A46",
"~  c #443652",
"^  c #453A53",
"/  c #4B3C53",
"(  c #4C3E59",
")  c #453B59",
"_  c #523E53",
"`  c #533E57",
"'  c #633D43",
"]  c #453E61",
"[  c #38425B",
"{  c #2B475B",
"}  c #3A4867",
"|  c #325270",
" . c #376578",
".. c #164768",
"X. c #4E4154",
"o. c #4D425B",
"O. c #45425C",
"+. c #534354",
"@. c #5B4354",
"#. c #53435B",
"$. c #5A465B",
"%. c #5C4A5C",
"&. c #56495C",
"*. c #5C444F",
"=. c #694548",
"-. c #764B47",
";. c #7B5248",
":. c #634B5B",
">. c #674954",
",. c #795558",
"<. c #714E55",
"1. c #4C4463",
"2. c #484A67",
"3. c #544662",
"4. c #554964",
"5. c #5B4C64",
"6. c #5B4E6A",
"7. c #554A68",
"8. c #5E526C",
"9. c #5B5166",
"0. c #495777",
"q. c #595777",
"w. c #4A4E72",
"e. c #624E64",
"r. c #635365",
"t. c #63546B",
"y. c #6B5A6D",
"u. c #69576B",
"i. c #745B69",
"p. c #6A5B74",
"a. c #665A76",
"s. c #715E76",
"d. c #50657C",
"f. c #6B617A",
"g. c #77667A",
"h. c #75626C",
"j. c #84651A",
"k. c #844C28",
"l. c #87562B",
"z. c #834D36",
"x. c #885638",
"c. c #935938",
"v. c #905E2D",
"b. c #866A26",
"n. c #8C732A",
"m. c #95792A",
"M. c #8B7335",
"N. c #967B36",
"B. c #906736",
"V. c #A2763B",
"C. c #845344",
"Z. c #8B5C4C",
"A. c #895846",
"S. c #935C47",
"D. c #855B57",
"F. c #915F52",
"G. c #814D42",
"H. c #996549",
"J. c #8C6255",
"K. c #986858",
"L. c #946F48",
"P. c #A46B46",
"I. c #A67946",
"U. c #A26C58",
"Y. c #A97556",
"T. c #B27956",
"R. c #886568",
"E. c #956C69",
"W. c #A7796D",
"Q. c #825C64",
"!. c #9E812D",
"~. c #9D833B",
"^. c #9D8336",
"/. c #A58A3C",
"(. c #A68938",
"). c #AD923D",
"_. c #AA9031",
"`. c #B5963B",
"'. c #A4852A",
"]. c #9B8245",
"[. c #A78B46",
"{. c #AC9244",
"}. c #AD934B",
"|. c #B59945",
" X c #B2954A",
".X c #B79A48",
"XX c #B79A55",
"oX c #B08B51",
"OX c #BCA155",
"+X c #BEA34E",
"@X c #B69569",
"#X c #C39955",
"$X c #C5A74B",
"%X c #C2A653",
"&X c #C7A957",
"*X c #CDB25C",
"=X c #D4B555",
"-X c #D2B34D",
";X c #C89766",
":X c #C7A663",
">X c #D4B765",
",X c #D1A96C",
"<X c #C0A33F",
"1X c #396A8B",
"2X c #37698E",
"3X c #4E5B84",
"4X c #6A5F80",
"5X c #4A6487",
"6X c #566887",
"7X c #496B94",
"8X c #566D94",
"9X c #467697",
"0X c #547698",
"qX c #4B7688",
"wX c #766985",
"eX c #687191",
"rX c #4B7AA6",
"tX c #587BA7",
"yX c #6C7FA0",
"uX c #86768F",
"iX c #58899B",
"pX c #498295",
"aX c #4B87A8",
"sX c #578AA6",
"dX c #4C96A9",
"fX c #5996A8",
"gX c #5999B6",
"hX c #4D8DB1",
"jX c #6797AB",
"kX c #679AB6",
"lX c #7491A9",
"zX c #5BA8B8",
"xX c #57ACB7",
"cX c #65A7BA",
"vX c #75A9BC",
"bX c #6AABB8",
"nX c #7A859D",
"mX c #5BADC5",
"MX c #67A9C6",
"NX c #68B6C8",
"BX c #75B7CA",
"VX c #69BBD3",
"CX c #76BCD7",
"ZX c #76A9C7",
"AX c #639AC3",
"SX c #6CC3D4",
"DX c #6AC9DA",
"FX c #76C5D8",
"GX c #6EC1CE",
"HX c #7ACBE3",
"JX c #3F869A",
"KX c #8B9DB1",
"LX c #88AFCC",
"PX c #87C5D6",
"IX c #88CDE8",
"UX c #A1C3DE",
/* pixels */
"@ C o.^ ( ( ~ P ( / 7.( P P T T e.7.6.( _ T #./ 5.r.#./ R +.E / 7 R S #.1 R S 6 5 6 5 ^ ^ Z o.^ ( S E 9.R / I 2 Z 5 Z & 8 R C 5 ",
"A X./ o.T P #.3.; 3.~ 6.( ~ P ` ` ( ( ( 3.P ~ P 7 ; T P 7 I I 6 Z Z D R D S Z 6 C * Y Z ~ Z Y D C Z 6 I D I S - Y Y Z ; - ; ; _ ",
"#./ +.` ` Z - ( _ P P ` P ` P $.6.5.8.e.o.7.3.~ / Q _ ` I / ~ ~ #.&.4.C 2 &.R 6 Z X.I +.7 S 4.o.&.t.X.#.D Z Y P t.D P ` Z L Y 8 ",
"#.#.e.Z T t.6.6.e.` ` ) ~ ` e.t.s.p.p.uXp.( a.a.P >.>.>.$._ 5.t.o.^ X.D 9.&.E I $./ / y.+.5.^ o.4.8.5.q.8.5.3.3.R ` Z 6.P $.P P ",
"e._ 5.8.4.a.4XwX4Xp.uX4X4Xp.i.uXs.:.uXu.p.` p._ Q.Q.F.D.g Q I E +.+.r.Y r.X.9.%.%.y.&.5.g.9.q.q.q.q.q.q.4X1.3.Y / R Z 5.( 3._ 5 ",
"i.s.5.9.q.a.yX4X` uXuXwXwX$.wXR.R.i.g.e.uXe.s.uXR.R.W.z.R.i.u.` %.E &.$.&.&.u.:.t.u.p.3.f.O.0.yXyX5X3X5X3X3X6.&.6 / / a.6.&.~ 5.",
"i.X.%.X.a.4Xw.uXuXa.wX6.a.wX7.wXp.t.` p.s.e.3.e.<.G.P.Y.;.e.s.5.9.&.4.Y 4./ 9.8.r.8.9.d.d.| 1XLXjXBXjXLXyXa.o.+.5.( / 5.#.4.y.` ",
"r.*.%.X.1.uXwXwXwXwXuX4Xp.6.] 4Xp.a.s.t.p.$./ R.R.S.T.T.C.>.` %.W r.5.p.t.r.f.t.f.t.o.9.KXUXZXcXzXBXBXlXq.w.a.t.t.3.4.5.4.$.#.Y ",
">.h.s.( ~ 8.4Xa.g.t.] e.wXi.u.f.t.y.5.s.f.wXi.,.A.T.T.H.G.,.i.s.:.i.9.9.5.s.%.e.s.h.&.8.f.6X .AXzXBXkXqXw.o.3./ D ( o.8.9.9.u.I ",
"=.i.e.` ] s.4X4Xp.wX4Xe.u.` ~ R.h.>.T e.#.r.=.Z.U.T.c.T.W.-.,.i.E.>.:.y.t.&.y.y.E @.g.9.8.8.| IXLXLXkX5Xq.#.~ t.a.o.4.a.8.t.5.9.",
"%.+./ ( ` a.` ( t.p.` ` / _ 5.Q ,.E.=.d a g -.S.Y.c.c.H.C.i i j F.O u I / Y 2 2 I 7 4 6 I H B ZXkX..5XeXH V A V V F A A A H ^ ^ ",
"R R 8 L Z T ` T P P ; ` ! % , f w Z.n j O f A.S.v.l.c.v n k n J.K.j f >.7 6 Y 2 ; & 4 3 5 F LXlXw.J G w.f.F F 2.nXG V } w.2.D Y ",
"&.4.5.r.#.%.=.e.T e.` Q.D.Z.D.-.i K.n Z.j j A.K.Y.P.c.z.v z.e n G.k -.,.U / Z I d >.' U ` ) K O.H F C 5 S V H H d.lXKXlX2.1.D Z ",
"^ #.u.#._ U ,.D.>.e.Q ' C.S.h X i C.t Z.h X O q y k.c.P.c.l.z.A.n G.J.-.s ` Y Q g =.<.s ` ] F H X.1 &.C D F G } B d.B qXG H C Z ",
"8 6 _ / L ! ' D.; ` _ g ;.z.Z.e A.n A.;.p O v y y #X#XI.k.k.c.x.A.S.G.j a +.7 s j j j d 8 Z Z / C S +.S D [ 0.qXjXbXjXbX} G ^ U ",
"7 #._ E L u G.j =.L P u ;.Z.Z.h n y r m X oXoXv.I.j.V.#XI.#XP.c.k.H.C.j u s d j K.b E.u a - $ $ 7 Z 6 5 D 2.nXjXjXBXBXjX6XH - 5 ",
"$.E T a = w A.C.=.g , g p G.n H.z.v oX].M ].M.^.M ^..X^.%X/.N.#XN.X q b X O X j v Z.,.f I 6 5 7 I R 6 6 o.2.2.[ J d.} d.d.f.O.9.",
"; 7 Q U = =.J.D.E.b f = i e H.t l.N.}.X M ].}.|.|.m. X~././.'.XXXX}.x.Z.Z.-.K.x.n K.D.=.E #.E E #.E I Y H ) ) G [ nX2.2.9.2.H X.",
"a 7 ; U a s <.p Z.;.;.p h n z #X(.(./.^.X M OX/.^.{.].~.}.{.^.}.[.[.oXn A.Z.n A.x.J.=.= & %./ X.S Z 9.R ^ / &.O.2.eXO.F o.o.X.o.",
"I 7 U L _ :.<.e X J.;.n n t oXy >X(.(.m.M XX~.!.^./.N.[./.[. X[. X[.M.B.q M U.S.S.;.f d T &.+.T S ( #.$.R 7 @ S [ 0.X.C / 9.o.5.",
"I +.2 ; +.Q o ' f b ;.X r I.&X(.c |.|.).+X{.OX X^.OX~.j./.{.n.XX X(.^.XXoXv.S.-.b i s T Z %.^ t.R o.Y ^ I / I W 1 / 9.S Z A D Y ",
"+.7 Q _ %.2 Q % w f ;.e M.I.(.(.^.^.|.{./.^.^.n.{.{.{.~.[.[.(. XXX{.XX[.#Xl.k.k -.j ! _ _ / D ~ ~ Y R o.2 6 X.@ 9 X.6 6 / R R Z ",
"_ E / 4.* ; s L s f j q oX[.z j.].}.}.+ |./.[.M }.b.N.}.:X X X(.[.}.[.oX.X#Xl.P.F.X O O Q / Y #./ X.D Z X.^ X.Y R X.E 6 S I Z D ",
"/ ^ ( Y L ` a e.U =.C.z  X).).|.+ ].OX+X|.|.x x [.}.~.m.~.{.{.(.{.[.].X XXV.;Xk x.;.b =.d Y Z Z ( 1.~ ~ ^ ^ ^ ^ &.S X.6 @ I D X.",
"~ 7.6.~ $.:.u.e.-.h k I.V._.=XV.x OX|.^.%X+X+X{.^.N.{.].X XXN. X!.{.oXn.`..XP.z.Z.D.<.' 3 8 2 1.K K ] 7./ ^ ~ ` R R Y Z Y R E E ",
"~ e.` %.Q.R.' =.F.F.H.V.=X-X'.$X>X^.+X_.$X)..X+X}.[.{.m.[.XXXXm.+X|..X.X.X.XoXc.h e i u ! L T ( 3XeX3XK H ] #.P X.I Y R Y Y I %.",
"` #.%.i.G.U.G.U.k.P.y #X#X-X`.`.c ^.+X_.+X~.m.z b.OX`.!.&X^.N. X{.*X`..X$X&XV.&Xz.S.K.G.<.T T ~ w.8XhX7X} H D ~ ^ +.X.R ^ ~ S S ",
"` 5.y.>.' U.P.T.P.c.k.,X(.`.$Xm.&X$X-X+X/.m.&X[.&X/.=X<X`.`..X).(.!.%X|.'.$X`.,Xz.U.E.F.! :.P ) K 7XZXZX7XG } ) ^ #.X.X.#.#.R X.",
"3.( #.` g e n y k t y V.j.`.-X-X-X<X-X`._.)..X|.XX+ `._.`.-X.X.X$X.X_.|..X|.'.&Xc.G.' ' ! %.#.6.w.8XgXZXkXqX2.] Y E Y ^ &./ #.e.",
"` 3.4.%.D.K.K.U.n S.c.I.&XV.<X-X-X-X!.`.|.|.%X.X:X}.<X=X`.`.j.$X.X$X%X|.[.).*X:XA.A.G.' ! T e.` 7.3X9XMXgXfX5Xw.X.%.S +.t.~ / ( ",
"R r.:.' W.U.Y.H.U.k.y oXV.&X$X'.-X`.`.+Xc &X+X$X%X|.<X-X$X$X!.m._.*X%X!.).*X[.,Xz.U.K.D.i.=.=.R.#.w.7XAXgXCXaX7X2.S $.r.I +.$.%.",
"R e.! ' -.-.C.F.A.z.y #X-X.XV.m.$X>XOXm. X!.|.(.`.&X<X-X-X'..XXX.X%X%X!.j.#X(.I.v F.H.F.-.=.' <.@.7.5XkXgXNXCXrX} &./ Q +.+.+.+.",
"t.$.<.R.=.! =.-.A.x.c.I./.`.).$XOXOX{./.OX+X!.+X*X+X*X+X|.OX+X*X.X>XOX~.|.*X:XB.P.H.Y.K.Z.Z.;.<.h.9.eXjXjXvXPXpXpXO.8.r.r.&.+.&.",
"Y E *.g >.>.R.-.C.S.H.c.oX)._.!.M ^.M M ^.n././.n.x |.l l ~.^.).j.N.m.m._.+XI.t K.k i w p J.b f d * 0 # 0 iXfXqX1X{ C S : d : : ",
"7 #.$.W ! R.J.-.H.Y.v v oX%X.Xl /.M l ].M + M M x M.n.M.N ].m o z XX[.~.m.b.O w g = o O O g < < * F | iXfX . . .2X9X# > 9 D X.4 ",
"X.9.Y 5.U =.=.n L.n x.x.r oX>X=X|.^.}.M ^.].}.OXM M }.^.+ ].m N M.N.b.M.x ].j p j u 3 > X.s 9 % > A B iX .iXpXiXhX1XV S 6 6 :   ",
"Z R &.Y E +.d ! g e X C.v v :X{.+X!.OXM }.!.N @X].^.M.M.M ].@XX X M (.z [.v v -.b =., ; * > % 2 & 1 | aXgXJX .qXpX0 V - S R 1 S ",
"R 7 R / 4.5.%.:.g g p n S.v m [.OX{.^.^.[.OXz M ].M.n.].].M M.M ].I.[.XXk.v X b -.b , 8 & S 3 : : G  .1XdXfXiXiXpX .0.A D X.2 6 ",
"E E ^ / ~ #.W X.4 f m e S.z.z.y I.N.XX^.+ M.:XM M.N ~.M.}.[.M XXM ].I.k.x.x.j -.D.b u U 2 : 2 X.R J { kXvXqXfXdXcXpX0.G - 7 & & ",
"E ` L ~ Z X.&.%.f ;.n n n c.n C.x.M.].+ :X:X}.+ {.}.}.l r X XXl XXL.B.l.x.K.' i f -.d 4 2 d R : C [ J qXiXfXfXjXiXfX3XG Z > 7 I ",
"5.t._ Y $.^ ` T <.-.A.z.S.y k C.H.t c.T.V.v.V.v.V.v.V.N.y v I.v.;Xl.x.H.v ;.f *.X.Q +.U E W a d r.%.W  .{ { pX .B pX0.w.R *.d u.",
"3.4.X.p.u.%.#.i.Q.F.Y.P.K.;.k K.h x.k z.c.c.c.k.T.T.I.H.x.n x.z.Z.z.T.U.K.n =.*.%.9.r.%.+.E W +.&.d.LXKXKXlXPXKXBXbX8Xq.X.%.%.@.",
"` #.P r.5.R.E :.G.U.H.S.;.b n F.n j y h A.c.k y k k C.h i J.x.H.C.n U.L.H.A.K.<.E o.t.9.t.r.s.1.qXpXbXbXxXbXPXdXGXdXpX5X4.@.X.E ",
"4.#.$.u.uX:.` f G.U.U.E.,.' j ;.J.e h Z.F.k U.c.U.A.Z.-.g j C.E.' j ;.D.E.J.K.D.@.e.5.5.X.X.#.} 1XdXfXxXGXbXxXNXGXdXpX5XH E o.Z ",
"( 6.T ~ $.i.,.D.E.G.' Q.T ! ' E.' u j F.' G.U.S.H.U.e b u u D.E.w g ! <.R.-.E.W.e.5.a.r.%.D G rXpXNXNXcXGXbXxXGXMXhXrXK O.^ o.^ ",
"( e.7.( P _ <.,.D.D.G.' P T Q.' u g ' -.i g D.G.U.y q n d s j <.,.U :.a =.g ,.=.$.3.( 8.a.w.2XrXxXdXcXNXSXxXGXbXmXZX7X} O.o.3.3.",
"e.e.e.~ s.:.` e.` <.@.` e.` ` s ` ! s f ` T s g n r k j ' P g >.:.U 8 L a Q :.T I o.2.K 0X7XrXgXVXVXGXxXDXNXxXHXmXkX8Xw.1.o.o.( ",
"e.wX` ` e.s.s.( 4Xt.` 3.6.P e.P ! U T Q $.` T g C.S.W.C.d P 8 L / L _ P #.5.3.3.6.2.} tXrXgXAXdXSXDXFXNXFXDXGXzXFXhX8Xw.q./ o.t.",
"5./ ~ ` #.#.y.8.^ 8.` ` ~ 3.3._ ` 8 T T ` ` ! u U.G.D.>.e.~ ` ` / 4.E ` / 5.3.q.w.3XrXaXmXHXzXFXGXBXMXcXMXmXHXDXVXrXq.1.( Z T P ",
"e./ P ) ) 8.  g.~ 1.A ( ~ ( 3.` ` 8 ` a Q ` U D.F.k ' e.6.] ) 6.( H 3.eXq.} H 6X8X7XmXmXmXDXGXNXbXzXBXcXmXCXGXDXAXrX3X6.3.a.t.3.",
"s.T P ` . a.I u.1.6X1.7.a.6.4.e.3./ L e.T L ' Q.j ' T ` ) A K H G H G { 5X7X0XpXAXZXHXmXDXDXNXdXdXBXbXcXMXgXHXMXrX3X0.` 5.6.6.4X",
"e.P ` ` 9.&.y./ w.eXq.w.6.] 8.( 6.` s Q Q ! U w g ' L ` ] w.} 3XB 8X0XZXkXcXVXNXFXVXHXNXSXHXFXGXvXBXBXFXMXVXCXrX3Xw.H ) A ] 1.7.",
"e.T T Y #.a.~ 2.2.lXK q.6.] 7.e.5._ 3.T a U T s ! L ) q.3XAXhXCXgXBXBXBXcXfXMXcXNXSXFXBXxXNXNXmXxXGXIXdXNXhXAXrX3X] a.3.6.3.6.7.",
"( $.T L 6.4Xa.2.3XZXyXq.3X7.] 7.3.3.` _ T @.` $.` L ) ] 7XLXHXVXVXFXSXcXzXPXpXGXSXHXNXFXSXHXDXDXDXNXFXzXIXgXtX} 4Xa.` ] 3.6.` 3.",
"3.@ $.( wXq.0.LXCXBXPXjXtX8Xq.V t./ $.I U ` Q $.Q e.8 e.K tXIXCXcXCXcXJXMXNXdXNXdXDXxXSXDXDXDXSXNXFXCXMXrXrX3XK 4X1.4X3.1.6.8.p.",
"g.A 6.#.6.K w.sXBXBXCXkXLX} ] 6.#.T / %._ @.T 5.` ` Q ` 3.w.| tX9XaXMXBXcXFXCXBXCXIXNXSXDXHXFXVXFXNXkXrX7X3X] H ( ] 6.` 6.( 3.` ",
"Y Y 7.D C w.K lXZXcXkX| J 5 1 * Z E 2 o   % 7 2 4 I *.: S 9 0 6 5X5X2X7XB 2XhXAXAXB hX..gXrX2XB iX..5XK H 2.5 ^ - A 5 @ C S @ 6 ",
"&.` ~ A ] H } ..qX1X0X| H > W 3 4 : , % o > d @ = , < <   9 O   J # V | 2X8X7X7XtX8XtX7XhXrX0.0.G G V G F &.( 9.^ 8 &.S 6 I / #.",
"^ 9.` 1.7.H V eX2.J 8X0.R E ; 7 I 2 9 9 4 % 9 o o 2 : 2 o 4 < < : : 1 5 6 H H K 2.6X} } G H F C O.F ~ 1 Z / o.R +.U #.u.6 1 I / ",
"S D ] ) ] ] 6X2.F H nXH F & 2 Q 6 S : 4 W , d % 4 s 4 2 4 4 4 < , s 4 o o 3 L Z R H * 6 K ) ( 7 D Z D Z D * R I ^ / &.r.X.& &./ ",
"Z / / ~ ] q.) F ^ R 2.- C 5 2 I $ 9 6 : > o < < < , < o o < < < : d < d % 3 4 1 [ %.% 9 X.2.&.R / #.D o.X.[ X.r.9 X.[ 9.I X.X.D ",
"6 7 ^ A F 2.D 3.Y 7 1 S +.E 2 4 4 X.* < d s , < o o = o < < u < 4 2 < 4 3 2 4 > S 2 : d R o.R 6 S R C / S X.d 9.[ W *.< h.S S X.",
"9 I : I ^ R E X.2 % a > 9 a 3 4 < < s < < < < o % s < < o < o < = < o < < = < : 4 6 o > > X.S X.S X.6 R X.S 4 9 d X.: 9 X.9 X.S ",
"    $ o   o   . > o % o o o * o . O o . o o . . . o o O o O . O O . . o o o O = : : : o o   o * $ : * $     :   : .     o   :   "
};
