/* XPM */
static char *_478227045ff41b7c2976c8f033a2237eSIdY4geH85LZXkU[] = {
/* columns rows colors chars-per-pixel */
"64 64 256 2 ",
"   c #1A0C01",
".  c #1B1502",
"X  c #231305",
"o  c #241B03",
"O  c #2B1D04",
"+  c #2B1C0C",
"@  c #27170B",
"#  c #321E08",
"$  c #2B1D12",
"%  c #2A1710",
"&  c #2F180E",
"*  c #2B2302",
"=  c #2C2409",
"-  c #342303",
";  c #3B2501",
":  c #33240C",
">  c #3B2B0D",
",  c #382908",
"<  c #3B370A",
"1  c #2E2112",
"2  c #332413",
"3  c #362B14",
"4  c #3B2C14",
"5  c #352A1B",
"6  c #3C2C1A",
"7  c #372518",
"8  c #3C3214",
"9  c #3D331B",
"0  c #3C3817",
"q  c #3E3322",
"w  c #3B2D20",
"e  c #541400",
"r  c #6F1908",
"t  c #442B07",
"y  c #483707",
"u  c #543B0B",
"i  c #422E17",
"p  c #423414",
"a  c #433B14",
"s  c #4C3B15",
"d  c #43341C",
"f  c #443A1C",
"g  c #4B3B1C",
"h  c #4B351A",
"j  c #533C18",
"k  c #542A02",
"l  c #653907",
"z  c #7B2916",
"x  c #6E2D11",
"c  c #443423",
"v  c #453B22",
"b  c #4B3D23",
"n  c #4C3D2A",
"m  c #483825",
"M  c #523D22",
"N  c #583F22",
"B  c #4A3C31",
"V  c #7B3024",
"C  c #3B430E",
"Z  c #4A4505",
"A  c #594704",
"S  c #5B5501",
"D  c #4C431C",
"F  c #484418",
"G  c #544214",
"H  c #52441C",
"J  c #534A1D",
"K  c #5A4A1B",
"L  c #5A4817",
"P  c #4B531B",
"I  c #58551B",
"U  c #475C0D",
"Y  c #644A0B",
"T  c #665706",
"R  c #735E08",
"E  c #664B19",
"W  c #675518",
"Q  c #755C18",
"!  c #774818",
"~  c #546617",
"^  c #6A6602",
"/  c #766807",
"(  c #7A7705",
")  c #796817",
"_  c #7C7618",
"`  c #69671C",
"'  c #4C4324",
"]  c #4D4B24",
"[  c #4D422A",
"{  c #4D4728",
"}  c #534424",
"|  c #5B4525",
" . c #544B23",
".. c #5B4D24",
"X. c #53442B",
"o. c #554C2B",
"O. c #5B4D2B",
"+. c #5A452B",
"@. c #555223",
"#. c #5B5325",
"$. c #55522B",
"%. c #5C532B",
"&. c #5D5B2B",
"*. c #585B25",
"=. c #5C4D33",
"-. c #564A33",
";. c #5E5333",
":. c #5A5634",
">. c #4C4C30",
",. c #624C27",
"<. c #645324",
"1. c #62542C",
"2. c #625B2D",
"3. c #6B5728",
"4. c #735924",
"5. c #624E31",
"6. c #625533",
"7. c #655B33",
"8. c #6A5D32",
"9. c #645D3B",
"0. c #68593A",
"q. c #725E37",
"w. c #7D4222",
"e. c #5C6429",
"r. c #5E6E29",
"t. c #67652A",
"y. c #776528",
"u. c #6B6334",
"i. c #6D633B",
"p. c #6D6B3B",
"a. c #676636",
"s. c #72643C",
"d. c #756A38",
"f. c #6B7638",
"g. c #76753C",
"h. c #747726",
"j. c #6C6942",
"k. c #756944",
"l. c #767444",
"z. c #7D7F50",
"x. c #6E5E45",
"c. c #87371E",
"v. c #8C3118",
"b. c #893525",
"n. c #973D29",
"m. c #A03D14",
"M. c #8A5011",
"N. c #827C07",
"B. c #836818",
"V. c #847B19",
"C. c #957719",
"Z. c #886B0D",
"A. c #924B2D",
"S. c #A84A24",
"D. c #AA5529",
"F. c #BA5729",
"G. c #BA5C36",
"H. c #A55A38",
"J. c #886727",
"K. c #887828",
"L. c #897636",
"P. c #967B37",
"I. c #91702C",
"U. c #B86439",
"Y. c #A56A2D",
"T. c #A6501E",
"R. c #C15F33",
"E. c #C5653A",
"W. c #AB5C47",
"Q. c #83784B",
"!. c #B86F4B",
"~. c #CD704A",
"^. c #748B32",
"/. c #7A8646",
"(. c #88840A",
"). c #8B8618",
"_. c #938B1B",
"`. c #95931D",
"'. c #9A951B",
"]. c #9B9717",
"[. c #95920C",
"{. c #A29E1B",
"}. c #A48F1C",
"|. c #A6A31B",
" X c #B3AF1E",
".X c #8C8527",
"XX c #938D23",
"oX c #97892A",
"OX c #9B9623",
"+X c #9B952C",
"@X c #9B9825",
"#X c #978738",
"$X c #9C9537",
"%X c #898838",
"&X c #A29C23",
"*X c #A39D2C",
"=X c #A99928",
"-X c #A48C33",
";X c #A39C32",
":X c #A6993A",
">X c #B39A3A",
",X c #AB9031",
"<X c #A6A223",
"1X c #ADAA23",
"2X c #A5A12B",
"3X c #AAA52C",
"4X c #ADAA2B",
"5X c #A9A424",
"6X c #B1AC2D",
"7X c #B4AA2A",
"8X c #B5B32D",
"9X c #B8B62A",
"0X c #ABA435",
"qX c #AEAA33",
"wX c #A9A438",
"eX c #B2AC34",
"rX c #B5A939",
"tX c #B5B234",
"yX c #BAB534",
"uX c #BDBA34",
"iX c #BBB53B",
"pX c #B8B53B",
"aX c #C2BD37",
"sX c #C0AE38",
"dX c #C5C33B",
"fX c #C9C537",
"gX c #CFCB38",
"hX c #86864A",
"jX c #978847",
"kX c #9E9442",
"lX c #888F52",
"zX c #A78B46",
"xX c #A69847",
"cX c #AE9E55",
"vX c #B49A57",
"bX c #91AD50",
"nX c #ABA343",
"mX c #B6A947",
"MX c #BCB443",
"NX c #BAB548",
"BX c #B6AA53",
"VX c #BDB457",
"CX c #ADB463",
"ZX c #908268",
"AX c #C6B847",
"SX c #C8B956",
"DX c #CDB551",
"FX c #CDB565",
"GX c #C19B48",
"HX c #C9C447",
"JX c #D4C94A",
"KX c #D8C855",
"LX c #D6CF55",
"PX c #E5D357",
"IX c #D1C768",
"UX c #9EC35A",
/* pixels */
"6 n m v b o.} 6.=.i 4 5.+.5.6.6.o.D  .X.{  .b h d 9 3 f f f 8 8 5 v 0 >.v v >.c 5 5 -.5 0 C 0 3 3 q ' v q [ q = 3 C 9 5 6 v c 3 ",
"4 > 9 4 > ;.p > , 3 8 F < , p 0 } F a &.$.} 0 D : f 8 { 3 v d f 8 0 = ' 0 . . 9 w = 0 3 [ 9 ' D 0 8 f ] 0 0 { 8 j.3 8 9 > 0 b d ",
"s 8 1.D  .P Z U D F e.r.~ p.< $.7.F f.F F J C P < D 9 $.a.j.7.f lXa.:.{ 0 a.:.] 9.9 { j.o.%.9. .p.9.:.#.a.j./.F :.0 $.l.*.k.- n ",
"7. .#.@.f.t.^.~ #.I ^.f.f.bX*.@...2.U CXu.&.lX@.a.&.> %. .7.a g.] F ;.=.$.:.$.$.] :.a.:.:.6.u...#.2.7.J C ] #.< ] 0 F C *.F p b ",
",.D *.g.r.bX^.^.g.*.^./.^.r.t.Q.8.#.u.I g.t.#.*.2.l.t.D } q.zXL.W #.O.O.] :. .p.Q.;.%. .7.&.2.H H 2.d.2.<.u.@.F a.< f.P a. .' d ",
"s.8.I e.C ^.UX^.^.^.Z t.t.e.t.t.J d.d.d.*.*.F &.u.2.u.d.j Q :XIXL.3.8.2.1.9.&.%.u.%.%.6.2. .0.0.1.s 8.1.q.k.u.z.*./.a.a.< ] } s ",
"s.6.7.P r.bX^.bXCX` hXt.P t.W d.t.t.<.<.d.u.@.#.2.2.8.L Q P.PX=X) W 8.2.s.8.2.#.2. .7.q.} p - O.1.%.s.<.<.J P *.*.e.a.< F a  .F ",
"s.s.i.< U UXbXbX%XbXy.h.d.L.g.L d.g.2.2.#.2.2.u.#...8.y.FXDXKXqXIXK.y.#.H 2.2.6.u.s. .k. .6.5.0.8.8.1.2.s.t d.l.*.$.@.&.&.f.l.F ",
"u.a.p.I P hXlX^.bX^.g.3.f.d.y.t.d.u.G  . .o.u.a.&.j E zXP.mX_.HXBX#X4.L K F 1.J J 8.d.k.O.1.,.8.O.s } %.8.<.#.%.< a.#.F P a.l.C ",
"a p.g.&.@.t.I a.e.t.2.u.<.F J l.u.H g %.D o.;.8.g 8.P.B.oXV.( ^.V./ R jX8.i.k.6.%.0.8.1.O.6.0.k.k.k.q.,.8.1.#.1.9.$.6.9.&.lXf.~ ",
"} o.:.@.#.' ..&.' a f ' .. .a a b > d 3 p d 3 4 g L R &XsX7X1XuX3XOXV.A K , d : X.4 4 # , ; # , # t t G u <.y g b v d b 9 0 5 0 ",
"O.%.$. .{ } 6.a p h ;.p O.4 h 4 M 3 i + 4 9 c i > y VX3X5X[.|. X<XMXwX#Xt g h c m 4 4 p q.,.j s H | q.y.<.jX,.g d : 3 5 + 8 + 2 ",
"4 p 3 p 4 f ;.} D O.0.=.f i h 9 4 M d X.2 $ @   u #XoX+XfX9XaXuX].<XpX.XW K : # 4 > y ; y.- * Z T kXVXxXBXy  .h X.[ 9 4 { f v 8 ",
"X.5.=.M X.f D } | | s q.h +.X.X.s H M h [   % i <.cX_ ^ ^.(.].].eX'.(.+XcXL +.b j G d.#XkX.X$XmXoX^ ( ( K.y.} { [ n [ v v ;.' d ",
"d o b g } +.} ,.,.j j ,.N t i ,.1.d.1.+.X @ c 5.L VXmX).2XqX2XqXiX<X@X).- E h > L y NXNXtXyXyXpX@XeX'.XXW > M ' d [ d f 8 0 b d ",
"7 X.8 } > g i j <.E ,.j ,.u u y K.Y t j 4 b # t y _ .X).( ( ).OX(.iX@X+X#Xy.; E cX+XeX[.^.|.4X^ ^ eXpXIXu b h 9 b v 3 v o.' f h ",
"n c 8 0.X.i 0.3.L.- ; ; ; jXkX+X)..Xy t.< E ,.3.E Q ;X2XeXqX4XtXeXeX( ;XmXK.Y BX;XpX'.`.@X@X@XXXXX2X@X^.t h i 6 X.6 X.[ { = = h ",
"m i , b d M h G 4.FXBXcX.X_ ;X`.pXmX_ I %XjX; E A -X;X*XOX2X4X5X2XqXeX&X:X/ T AX@X5X`.@X4X`.).( ^ ).N..Xt N & 2 + 4 : $.$.[ v [ ",
"i 4 i O., i i s y.xX^ A V._ (.NXwX^.Z o VX_ K.A A mX_.3X@X*X@X2X0X2X).;XoXR rXtX&X(.(.pXuX4XpX@X2X2X6XMXP.4.X.n -.4 X.X.F 9.o.b ",
"i : O.f =.d 4 - G jXBX$X$X^ ^ ).wXXX_ T $X+X;X:XT BXwX*X2X*XXX`.).XX+X$XBXC.3XdX4X3XqX4X5X8X4X].eXOXiX_.J.,.j b -.d X.d :.o.b 4 ",
"+ g ;.:.c 8 i 6 t W K.XXNXS MX<X2XS wXNX$XwXwX;XzX- V.NX0XOX2X2XwX@X$X+XA :X5X].|.AXqX]. XfXtX2XMXmXnXkXu.,.g [ d 8 b d v 3 o 0 ",
"d 3 %.p 0.+.X.# | u oX`.wX(.[.yX@X].^.`.XX^ 2XNX:X) K.+X*X*XiX0XXXXXXX+X) $XqX7X[.pX].6XuXuX5X6X).< * ) y t b 4 b [ 3 ' v 8 :.' ",
"f 8 a ;.f } } b , y./ pXpXmX^.sXwX* qX{.2X).2X'.XX+XT K.*XwXwXV.xX+X:XS _ O S AXHXtX8X4X4X{.tXtX2X*XnXkX1.X.h [ =.n v v ' >.m 5 ",
"#.1.' D 1.1.p 5.<.L.NX4X].(.mX; NXMX<XtX`.( <XpX3X0XV.BXoXoXB.Q ) Q FX) $XwX2XqX(.4XtX4X@X{.8X[.@XXXK.y.h i q 2 9 : 2 $.:.>.v m ",
"J u.hXa.l.8.k.j H <.K.A aX[.N.^ ).@X(.].OX(.(.'.qXXXL.t L Y ! l M.! I.GX,X7X7X{.].[.(.( [.uXfXHXXXkXQ K ' X.6 X.h X.9 ] >.{ X.d ",
"J J I d.u.1.s N s ..L.mXsXgXaXgX|.tX5XiX&XeXwX).OX*XvX! V !.!.H.A.!.Y.M.C.AXyXuXHXpX0XwXMXtXeX;XT W K } h v c m [ 9 ' $.f 9 f } ",
"7.D a.a.J &.O.O.t ,.u y.AXgXfXfX1X1X|.5XtX5XtX}.aX,XM.v.S.G.G.S.U.U.D.D.Y.Z.DX7XeXHXMXDX:XoXQ y.j y | p 1 v c h b [ D o.{ p f g ",
"H i.*.g.p.D f g h h i Y Z.7XgXgX|.fXuXuX8X{.].9X=XC.T.v.m.S.n.m.F.S.S.D.U.T.Z.DX_.AXC.B.) Y t u ,.5.=.f { b ' f b D f f p f o.' ",
"J @.F < &.F  .h d g j j ) -XoXJXgX9X X8X7X|.aXsXKXT.M.m.R.E.R.R.E.G.U.F.F.D.C.,XC.S Z.B.) R K.y <.} } d f } h d b  .f D @.j.$.o.",
"F #.$.j.a.%.} } s X.M H E #XK.( PXfX1XaXN.JXJXDXC.Y.T.R.F.R.R.F.R.S.F.S.D.U.H.M.FX>XmXoXmXxXBX) P.y.K O.| } +.{ X.f X.D  . .a &.",
";.#.@.p.P @.%.H d g h g 6.u 4.I.*XAXDXsXAX=X}.KXM.T.U.R.F.F.F.R.S.R.~.F.S.D.T.Y.mXeXOXeX=XeXnXmXmX-XL.A L 7.} ' '  .X.;.g ;.k.D ",
"O.O.l.e.p 6.;.a o.d d } 0.N s 3.u ) I.Z.B.I.Z.,XY.U.D.E.R.E.E.R.U.~.!.~.U.D.!.I.>X@XmX$XmXNX+XXXrXmXSX#Xu.| g ;.0.O.-.b =.;.i.p.",
"d , < 8 f ;.X.h m n n h X c : : : # t O O ; y # k V z r b.v.v.e r x e V z A.A.l xXy , Z * y Z $X) Z S K.y a o 1 c 2 5 1 $   w 5 ",
"4 c O.b ;.d =.0.i +.n b n i t 4 # i j ,.; 8.jXcXt V W.z r z z V b.A.V x z V A.k L.%XI * hXh._ .X$X~ .X$XL.y p c w $ 1 w $ 5 B 2 ",
"=.O.i.D 4 0.[ 9 i c -.c m h g s t Q #X) V.#X.XkX4.x W.V v.b.V z r b.V b.v.b.A.l BXSXBX%X:X$XNXwX$XwXwX.X.X` O i q w 5 5 5 5 $ % ",
"M 7.:.' ' 9 2 2 c q d n } , L.I.J.zXoX:XOX( .XS J.u b.r r r W.r n.n.r b.n.c.k J._ * K..XK._ ^.T ( ^ ( .XwXK.<.# n 2 X @ 5 @ $ $ ",
"4 F @.j.+.;.;.2 $ % 5 m s 3.P.Y oXnXNX( tXqX^.;XBXT l V W.v.v.b.r r v.z z M.l xX$X%X` S ) V._ h.^.<X`.mX* %Xy G : $ q q q q 1 w ",
"O.$.] $.0 f k.c q   . = s Q mXSX* mX).*X|.qXN.).mX/ J.x H.c.b.b.H.b.b.z A.k FXK.NX* %X* ).^.%X* `.tX`.$XNX$XcX<.3 7 5 c q >.5 >.",
"O.;.C $.X.{ ;.-.q +   p Z K._ / $XwX).2XXXOX+XS +XXX#Xt # e e A.A.w.! l k Q R VXT XX_ _ +X_ / S (.4X).+X.X.XxXy O 6 m q 5 3 q 5 ",
"#.F ] $.f X.o.6.v b } W $X)._.( ( (.@X2X2X).@X2XpX&XK.# y L.Q u t J.Q J.$XoXA K.wX`.`.OX`.qX+XOXuX2X^ _ Z .XT W s b q [ q q 0 q ",
"i.7.k.a.s.p.0.k.%.1.L.A LX9X XtXHXuXaX).).eXyXyX[.tXnXT >X*XeXAX,XmXiXJX<XHX-X-XDXrX3XtXaXiXHX@X].iX+XmXAXeXmXI.3.} b } X.[ :.] ",
"#.D 8.s 7.1.....D G Y AXgXfXfXaX1X{./ ^.[.6XdX[.aXAXnXT 7XyX9XgX4X6X{.tXJXsXDXC.Z.AX-X;X=XaX3X&XqX3XNX&XyXAXrX-Xy.3.} } ' g ] 0 ",
"p.d. .H H 0.> o.H L K.sX9X XgXfXtX2XS ].8X1XuX1XyX`.GX_.=X[.8X|.yX|.*XrXtXaX=X>XT J.K.K.NXAX.XK.LX(.(.=XMXAXqXrX-XE 5.X.$.a.a 0 ",
"@.@.J #.2.i.O.i...4.V.PX9X9X|.9X(.( pXHXyXdX|.].iX/ / >XyX4XdX|.fXyX&XeX}.aXDX}.Y d.E y.B.#XJ.#XSXNX_ BXT R :XDXP.4.j #.&.a.&.:.",
"} a 9.< s 6.#.b H E ^ rXaXdX3X( XXXXT V.).*X*XZ +XV.u oX2X|.|.5XN.|.5XdX4X'.7XoXzX3.G J K G G K L L Z y K L I.J.P.I.<.| $.#.l.C ",
"j } @.@.D 1. .1.1.u -XKXuX(.&XT ( ( ( +XS V.wX-XP.R T VX2X( HX6XHXuX|.1XHX4XiXmXY u.| O. .7.u...#.2.9.0.j K 3.W Y 4.3.a  .< r.$.",
"@.2.r.e.p.H s D 1.y.oXsXaX{.7X(.2XHXeXeX3X7X_.-XE k W BX(.4X_.(.].8X|.9X[.uXNX_ P.L s ..7.%.D  . .D D 1.2.q.K 3.,.E 1.K  .&.j.&.",
"2.t.lXI F 1.O.1.J.Q.R KXgX{.&XtX2X&X:XN.AXAXP.E E t Y V.3XiX'.3X5X(.fXdX{.8X3X_ R q.q.s...i.8.6.u.#.7.2.8.q.s.x.Q.8.@.2.&.e.$.$.",
"D H J @.D %.k.O g A Z.JXsX}.5X7XDX/ _ A Y I.J.N 5.j I.FXPXHXHXyXuX|.[.HXgXJXJXmXJ.E q. .#.#.a 9.@.7.7.J ..u.....8.....&.e./.] %.",
"O.>  ...t h b ; h t KXKXZ.C.>X-XC.Q y ,.t h k j N h J.Z.0XA 6X[. X1XuX{.9X(.uX&XL.E } H o.%.D &.7.2.8.s.J 1...H 1...H %.I t.i.i.",
"i.O.g   : 6.N 3.!.Y.rX-XS W A Y G t s +.m N N 5.N N 3.k oXHX].].dXuXgX9XfX[.N.T Y 2.#.0.u.@.%.u.K u.<.J K d.#.i.D O.} u.&.@.$.;.",
"s.a $.:.} ,.j L.P.J.B.) 8.I 7...| | g 5.h i N i N h h u Y rX7X9X X( |.9X|.JXSXK.d.<.s...#.#.u.J ..8.d.d.d.u.#.u.H a  .D g.r.@.:.",
"k.a :.l.#.s.j 3.u <.L #.u.#.u.F t g q.M h h # > N j t K J.>XrXPXfX|.gXgXuXLX:XQ W K &.t.#.*.#.D F G u.#.#.u.@.2.2.I a #.r.f.< { ",
"0.D f.f.#.j a | j ..} ..<.t.d...5.,.5.h N x.+.,.,.+.+.j l zXC.rXiX].1XLXHXwXy.G u.s.&.7.%.2.t.1.O.i.s.1.#.2.@.@.&.@.7.p./.^.9.' ",
"O. .p.&.8.<.2.hXlXk.5.j  .| 7.s +.# M ,.M N i M +.+.+.| ,.<.t W xXIXHXVXL.; ,.H  .a ' 9.} %.} j O.%.O.s.8.q.l.l.&.k.o.] p.f.$.;.",
". +.F < a F < C F a s c h > X.O N c i c 2 7 m 4 d M i # i d N t < ; A u t t } b d b b - h p b 3 > h } O.H O.o.0 < 0 , a 0 8 [ n ",
"' f D $.F 0 *.f.e.F 4 + h 4 : 2 4 6 4 i & 2 1 B c 7 7 6 i & 7 t Z #XQ.k > 6 3 : 4 o 4 c 6.g d 3 1 9 q 3 3 0 o . 0 . :.3 = = = @ ",
"f X.' $.9.C C P e.@.4 c 4 v X.i i c 1 c w & + 2 & 7 & 2 2 2 2 : 3.jXt # p m 6 0.m 2 2 4 8 } >.[ d q j.' :.>.= q >.0 :.C >.0 :.v ",
"d =.9 0 C /.lXP , 9 h = g 3 3 O c -.n n 7 c n i 7 2 @ 1 7 2 i c ,.h # i m m =.2 b ZXf 4 ] ' $.$.' ' { $.j.:.>.0 ] v :.:.{ b m 9 ",
"= 4 0 0 :.>.C ] :.= c : p d d b O X + : 7 # c 6 i i X.c 6 4 2 2 O i i 7 q + @ 4 f v =.>.$.i.] ] 0 0 $.' >.C >.F ] C P $.$.[ ' b ",
"X.4 =.' f :.&.$.: b X.} 4 6 =.6   c c c i i 7 =.w c w =.c 6 =.n $ % m 5 q 7 c c = [ k.f $.>.' v 3 >.{ * ' ' ] 9.D f o.%.;.o.+.f ",
"2 f 8 b v f ' 9.3 v 8 =.m 9 7 4 % 7 i c i c 1 7 7 1 $ + % & 7 2 $ . 2 w $ 5 7 4 n c 3 v 3 3 0 [ 0 ' v q >.F 3 C { 9 ;.' } { :.' ",
"2 5 q c n 2 c q v c 7 c % 7 $ + 7 7 7 i c w 7 $ 2 % 5 c m 7 m $ $ 5 5 @ $ 5 7 $ m 5 v -.B 1 = 2 q q 0 >.5 3 [ ;.-.v n : v 9 $ 5 ",
". @ @ @ + +   + : + & @ 7 X % + % % X @ % % % % X % @ % X X % % % @ @ $ X @ 5 + X . @ o . 1 . 5 = 5 = 1 1 5 . X o 0 1 @ $ 1 $ 1 "
};
