/* XPM */
static char *dfa1f71f36c24913bdaf8e71c9e0ac0a9K7JC6v1TQQxNlLE[] = {
/* columns rows colors chars-per-pixel */
"64 64 252 2 ",
"   c #1C1B03",
".  c #170A02",
"X  c #250D05",
"o  c #2B1C01",
"O  c #25120B",
"+  c #2B140C",
"@  c #2D1B0D",
"#  c #271805",
"$  c #331B0D",
"%  c #3B1C0D",
"&  c #351804",
"*  c #2D1A12",
"=  c #2B1611",
"-  c #341C13",
";  c #3A1E13",
":  c #341F18",
">  c #082800",
",  c #1C2302",
"<  c #1C2B00",
"1  c #152901",
"2  c #183400",
"3  c #0A3300",
"4  c #232303",
"5  c #2C2203",
"6  c #252B03",
"7  c #2B2A0B",
"8  c #27260A",
"9  c #32240D",
"0  c #382709",
"q  c #283608",
"w  c #373609",
"e  c #2D2812",
"r  c #342314",
"t  c #3C2214",
"y  c #332A14",
"u  c #3C2A13",
"i  c #36231A",
"p  c #3C251B",
"a  c #3D2B1C",
"s  c #352B1B",
"d  c #383717",
"f  c #2B3413",
"g  c #3E2922",
"h  c #3D3522",
"j  c #411D0D",
"k  c #471E12",
"l  c #45240B",
"z  c #432415",
"x  c #4A2514",
"c  c #432A13",
"v  c #4A2A16",
"b  c #42261A",
"n  c #442A1D",
"m  c #4B2C1C",
"M  c #4B271A",
"N  c #522D1B",
"B  c #572C18",
"V  c #44331C",
"C  c #4C321D",
"Z  c #473A1A",
"A  c #53321E",
"S  c #5B331D",
"D  c #59381A",
"F  c #4E370B",
"G  c #65381C",
"H  c #713C12",
"J  c #442C22",
"K  c #4B2D22",
"L  c #482F29",
"P  c #522E22",
"I  c #453324",
"U  c #4C3225",
"Y  c #4C3C24",
"T  c #4D342A",
"R  c #4D3A2B",
"E  c #453826",
"W  c #533323",
"Q  c #5A3523",
"!  c #553B25",
"~  c #5C3A25",
"^  c #53362A",
"/  c #553A2C",
"(  c #5C3C2B",
")  c #5B3629",
"_  c #4F3A33",
"`  c #553D32",
"'  c #5B3E31",
"]  c #633C25",
"[  c #623D2B",
"{  c #6A3E2B",
"}  c #643624",
"|  c #673E31",
" . c #174A02",
".. c #294809",
"X. c #26570B",
"o. c #2C4815",
"O. c #374619",
"+. c #285413",
"@. c #34591A",
"#. c #354B0E",
"$. c #37681A",
"%. c #37751C",
"&. c #30630F",
"*. c #3C4624",
"=. c #3A5925",
"-. c #3B6424",
";. c #3C6C24",
":. c #3C6627",
">. c #3D7323",
",. c #3F7927",
"<. c #48481B",
"1. c #4E4E14",
"2. c #6F4D1A",
"3. c #4B711A",
"4. c #484626",
"5. c #55442C",
"6. c #5C422C",
"7. c #584827",
"8. c #475929",
"9. c #58582B",
"0. c #5C4233",
"q. c #5A4736",
"w. c #4A5732",
"e. c #575839",
"r. c #4C4731",
"t. c #64422D",
"y. c #6B432D",
"u. c #684628",
"i. c #72442D",
"p. c #774A2A",
"a. c #67552B",
"s. c #634333",
"d. c #6B4533",
"f. c #644A35",
"g. c #6C4934",
"h. c #634639",
"j. c #644A3B",
"k. c #6C4C3A",
"l. c #6C4639",
"z. c #734C35",
"x. c #734D3A",
"c. c #7A4E3B",
"v. c #754834",
"b. c #695339",
"n. c #75523D",
"m. c #7B543C",
"M. c #785737",
"N. c #78532D",
"B. c #466A2A",
"V. c #576928",
"C. c #427424",
"Z. c #427B25",
"A. c #43732C",
"S. c #4A742C",
"D. c #447C2B",
"F. c #4B7C2C",
"G. c #4B7625",
"H. c #57792A",
"J. c #4C6A34",
"K. c #556937",
"L. c #4D7432",
"P. c #4C7C33",
"I. c #4C7638",
"U. c #527C34",
"Y. c #537D3A",
"T. c #5C7B3C",
"R. c #557437",
"E. c #63783B",
"W. c #6B7234",
"Q. c #657D1F",
"!. c #6C5242",
"~. c #755442",
"^. c #7B5441",
"/. c #7D5A44",
"(. c #775B47",
"). c #735448",
"_. c #5B6A42",
"`. c #5C7742",
"'. c #676844",
"]. c #667946",
"[. c #75724F",
"{. c #865739",
"}. c #8A552F",
"|. c #8A613B",
" X c #96643C",
".X c #835B43",
"XX c #8A5C4A",
"oX c #855A47",
"OX c #935E47",
"+X c #84624C",
"@X c #8A6548",
"#X c #966748",
"$X c #8B6754",
"%X c #966855",
"&X c #8B7456",
"*X c #9C7759",
"=X c #93734D",
"-X c #A57A58",
";X c #A6724C",
":X c #877B65",
">X c #AC7F6A",
",X c #3C8023",
"<X c #4B832D",
"1X c #4A8B2E",
"2X c #478529",
"3X c #52842B",
"4X c #59872B",
"5X c #4D8433",
"6X c #4E8B33",
"7X c #538333",
"8X c #538B34",
"9X c #5B8B33",
"0X c #54833B",
"qX c #59893A",
"wX c #599338",
"eX c #52922D",
"rX c #64873A",
"tX c #63933A",
"yX c #6F8E30",
"uX c #5C8542",
"iX c #5B9342",
"pX c #678747",
"aX c #689349",
"sX c #768A57",
"dX c #748E4F",
"fX c #7B8961",
"gX c #8B8E3C",
"hX c #859748",
"jX c #859655",
"kX c #8D9253",
"lX c #AE825C",
"zX c #98AB50",
"xX c #8B8866",
"cX c #968F6C",
"vX c #A88568",
"bX c #B58865",
"nX c #B68F73",
"mX c #97AB6A",
"MX c #A6B369",
"NX c #A9B16C",
"BX c #A5B25B",
"VX c #C89D7B",
"CX c #C59066",
"ZX c #DAA477",
"AX c #E9B07E",
"SX c #C6CF72",
"DX c #BA9A83",
"FX c #B7B785",
"GX c #D0A888",
"HX c #EBB484",
"JX c #C89A80",
"KX c #B1C681",
/* pixels */
"z ! U U ^ ' ( h.| M M s.[ d.d.g.t.W / ( ( 6.W m m U b J K I n a p U J 0._ I ` L p p ` p I L J t p m T T n ! L t t T n p p U U t ",
"z t n n x s.N x k z x S N k N N ~ A C g.s.~ A W j z b K n ! L U t U + T n + O J J @ L t n t m n n n U 6.t v n u 0.t p U b b U m ",
"Q x y.Q [ ) P } P B [ ] ] } x [ n.A y.S Q ] N v v W m 0.h.T U n d.6.k.( n ` q.' !.I n !.s.t.b.t.k.b.k.( 7.u./.t.t.c s.( ^ | ; ^ ",
"z.[ y.P [ [ v.{ i.i.v.y.i.{.B { t.i.} %Xm.z.$Xy.m.d.c s.6.~.C k.vXD f.f.0.k.W 0.( U b.d.k.k.(.] i.g.z.G B *X*X-X+Xv v N Q W m Q ",
"d.S i.[ ] c.c.}. XH ;X X#XlXN.;XN.u.{.p.z.x.d.y.z.@Xz.! ! f.z.u.#XM.t.t.( f.[ n.&Xs.f.6.m.d.x.~ D N. XCXCXCX;XbX%Xx c.Q ) [ ^ P ",
".Xx.g.z.S i.}.p.AXHX}.-X XZXCXZXH #X{..Xi.z.D z.z.z.c.@XA W c.VX-Xu.z.k.z.n.d.s.n.g.y.z.f.[ n.M.p.lX X-X#X#XOXOX.X%X>X[ x [ ) Q ",
"/.k.x.t.{ }.}.AXZXCX>X-X|.#X;XZXAXCXVXN./..Xy.i.z.z.z.] z.G ZXu.N.VXM.n..Xb.k.t.x.t.z.z.( M j G bX;X XoXp.} G } { .XXX[ Q P Q K ",
"/.k.t.x p.|.HXHX X;X}.{.{.%X XH }.}. X{.D z.i.{.u.u..Xu.N.GX{.}.2.@Xz.m.~ z.z.g.M.m.] +Xt.g.u.lX;X#X{.v..XM %Xv.{ XXXX] z.d.s.Q ",
"m.b.f.t.u.;XHX}.;X}.#Xi..X.X}.{.{.{.B ] ~ GXu.@X{.} N.lXbXi.}.}.OX{.VX-X2.B u.] ] z./.=XD bXbX#Xv.S { | v.oXc.| B %XXX} } x.l.P ",
"A n.n.t.u.#XOXOXv.}.c.c.z.S } oXc.Q S d.A t.nXVX] -X=X|.{.OX{ } i.y.G |.nXu.m.g.g.z.t.d.@X{.{.{..XoX).| ^.^.| | oX| | ~.l.XXk.g.",
"~ s./ t.D *X{.v.} M } XXt.[ v m Q z M b n m t b U v W x t.N S l.x [ l A C A &Xu.*X~ b.A b % ; % t t K ^ K | | k XXXX| ^ K b m K ",
"s.h.' t.~ *XXXB N N l.^.t.n m z ^ t J ; n J L g a b U K s.M P M M k.U K ; C l 7.t.! c V K J p J L a ^ L K K !.^.| | k M $ b - ; ",
"b m z M z x.nXOX} | c.~.Z 0 z K z ^ m ' : : O X p T L n ( W ' ^ z K ^ M b ' t % r u t - i - = * - / L n I n ' K ' ) n b ` K K b ",
"( h.( ( ) Q -XXXoXl.| /.Z '.Z ' U ( ^ K _ . = g p J + - n n n W U b b U 0.J 5.I E a s R I a i R y * p r g J ` ` / / / U ^ K ^ K ",
"K + K ^ W [ [ vXx.h.s.6.d b.t K K ^ I g O = L T J ` 0.K ^ b s.U K n a * @ d h 7 q f f 4 , 7 , , , , 8 @ s s / ^ L ^ K U b n ^ K ",
"b ( K P b P l x ) K c y '.8 J n n J - L = g ; ; : ; K ^ t T / n t Y s f 1 fXO.`.R.J.`.B.=.J.K.=.*.e.r.e g E U n T ^ b T K ^ L K ",
"P K m ' ) m ` ; n @ , w - I ` L t b * * p q.L T n p n $X` ^ L I y q J.J.0XpXqXD.I.5X:.:.A.:.B.1 < h h g : h L p ` J ` ) J b $ K ",
"K J ; m K ^ n J E 4 ].K.d a V n 5.U * = g J - L p U K ^ / Y Z d _.R.0X,.P.,.2X<X,.,.%.,.6XD.:.=.=.w.    e h = - $ p ; q.^ ^ L ^ ",
"b b K ^ ; z a y 8.`.B.< 6 4 4.FX&Xh = X I T / T J U T L R d K.`.T.Y.7XD.%.>.Z.2X,.;.>.iX6X,.qX7XP.0XP.sXq h 5.R ` b s.( K ' ' ^ ",
"b ; 0.b 0.V w 4.`.B.].R.K.O.V.E., s e   T t a g T I V 9 d K.L.>.C.$.>.<XaX0X8X5X5X,.5X<X1X1X2XZ.D.A.uXP.`.].4.E ` n ' J j.' ^ b ",
"% U 5 q.Z '.9.K.B.0X$.=.].@.H.H.`.1 dXxXd R U j.q.9 d `.uXL.G.;.rXS.F.<XA.D.Z.%.,.6X,X1X1XwX1XqX1 q d w.`.].P.dX6 s / J U b % J ",
"m t xXw 8.8.9.1.L.;.@.6 , <.dXH.S.S.E.jX'.t q.R u d R.U.S.C.qXF.B.C.C.S.5XP.>.5X>.6X6X,X1X8X6X0XJ.,   , 1 q `.`.].9 y _ T n ^ T ",
"Q u <.T.B.dXW.1.+.`.4.4.Y Y 7 9.K.3 F.E.4.p L e < J.U.F.Z.<XP.-.0XU.5X>.;.> X.iXiX6X,.5XU.A.P.R.J.R.T.sXr.r.d Z d !.'.T ` / _ p ",
"t.5.8.rXpXE.<.W...`.7 I j.c C o W.rXC.P.f e * # ].L.P.D.F.C.$.@.@.@.iX5X>.I.A.Y.>.5XiX`.U.2 2 @.B.L.B.K.8 a U p a y $ q.U W L ^ ",
"~ (.].K.].c f.5 B.L.Z - ( m W c # K.C.S.dXxX6 d 6 J.-.3 ;.,.,X>.G.F.9XZ.8X6XU.B.S.B.J.@.L.2 4.w.d 4.9.J.].E i q.J 0.U J T / ' K ",
"[ D <.kX6.[ f.5 V.dX4.^ ( ( ( 6.<.].U.9XH.w '.d 6 ].0X5X2X1X8X6XF.wXF.$.wX5X.., 6 d q 8.T.].[.Y u Y 4.4.8 e.E T T U / K K m K ' ",
"z.~ (.u.B ) W y 8.q a m Q W ) ! V , rXG.T.q d n y *.R.%.,.6X8X2XwX7X<X3XqXL., 0.b.! 6.I 9 E r.d Y C / V r g * I R i T ^ W m P P ",
"~ ^.s.^.v.[ n '.4.'.n ^ W Q ) f.D w dX9XqXjXw W I 4 L.%.%.2X>.C.F.2XF.7XrX].o f.g.g.k.( ^ 0.u r 0.h.h.I i 8 r e 8 w.5 V m K ( ( ",
"~ t.A N Q x ^.M 5 5.m P ( [ ~ u.F NXyXeX4XhXmX7.6.4 8.%.1XeX2X8XwX9XwX7XrXO.c g.d.M t.k./ / / n s.6.R 4 ]._.w.w.J.L.].4.0.t.s.t.",
"Q f.s.[ x.) } } W 5.^ ^ ( l.t.a.5 BX3.eX$.MXFXc ( 5.O.U.8XeXeXZ.wXZ.3XH.].4.0.Q s.t.W k.t.0.W / f.Y f [.d 4 y w `.T.].5 5.) m l.",
"k.s.Q l.{ { P Q m W K W k.Q W 0 SXyXeX2XH.<.5 U ( V O.qX8X2X2XeX2X9XwXqX].8 5.0.j.0.h.P f.s.( ( 5.9.sXo.4.a.! 5.Z 4.7 '.$ h.l.~ ",
"t.s.s.z.B v.v.P s.m m ) k.^ n 0 zXyXyXeX< 5.I 5.q.! d E.qXwXwXwX3X9X0XaXO.d [.C $ b 0.b f./ 0.` 4.[.pXq q.0.U j.j.0.q.V a h.j./.",
"K z M M W j.' K P ^ ' K X z 0 0 q 1 o.1 , 8 s = : a f f ;.$.@.3 o.@.2 *.f h y '.xXr * g * r * n e f o.  s g O : J i i i * O g g ",
"z m 0.T j.m h.k.J _ ^ K / c # cXO._.R.`.'.xX= g : h h *.@.@.=.=.J.R.=.O.  8 1 '._.,   8 [.@ g i s 4.w._.f e g h i * : g * i _ : ",
"s.s.( ( b !.^ J J K q.T ^ c o BX..P.0X+.J.e.r.p _ s *.w.=.:.-.+.+.:.=.3 :.:.J.:.I.uXpX`.fXw.q.s h s *.=._.+., e 7 h s i : g * O ",
"Q ~.^ W / m t t L J J ` / & o MXS.>.>.U.q 5 9 $ i y 1 f @.+.`.+.;.I.=.:.I.,.&.>.$.> =.B.w., s i g e e 8 J.:._.f w.e.  * i * * = ",
"c ^ 0.0.' h.h.p = * g L L c 5 W.V.P.P.$.1 f 7 5.g e =.B.I.;.,.:...+.>.X.+.,.&.,.S.J.=.o.=._.1 @ * E s E < 8.w.R.*.s `.f g L * g ",
"| 6.( W m W (.T g .   O a u o FX2 0X;.;.uXNXE.'.d   J.$.uX$.:.:.`.A.A.+.5X;.iX>.T.1 J.1 :.=.J.< xXg ` J h s d f e 1 _.].d g g ` ",
"t.k.W U ' ^ !.` h   . 1 a s # W.B.F.5XD.A.S.dX1 2 J.:.+.> -.+.;.6XI.:.:.-.D.5XP...3.1.1.A.$.@.O.e a n / J n E a e   =.J.9 : : p ",
"t.Q m Q ^ ) ` j.h s =._.s a # d V.$.C.6XP.C.7XU.I.A.:. .=.:.D.>.X.5XX.+.;.;.$.>.hXdXyXhXaX9XP.L.8 Y t r & K ; U L , B.I.8 T p L ",
".Xx.n.^./.oXx.[.s fXiXP.1 E Y 5 KX4XwXF.%.8X<X<X,.5X<X2X,.,.2XeX,X5X3X9X3X9XtXpXq 0 o 4 BXyXtXqXpX#.a.7.t.g.x.k.h 2 0XpXf T ^ ' ",
"y.Q ~.S z.u.t.( cX2 P.qXpX6 O.6 ..H.X.$.C.3X1X%.eX8X1X,.,X1X1XeX1X<X4XzX9X3XtXT.6 Z q.u w MX4X3XH.MXFX&X7.y.f.[.xX8.S.U.Z ^ K K ",
"oXt.) [ ( z.z ! c Z xXo.uXuXiXaX<XC. .%.eXZ.wX,X1XeX1X3X,X%.eX%.4XyXzXzX< pXH.wXdXo.b.b.5 1.yX3.tXaX#.Y 6.C f.4.2 aXpX2 5.s.N m ",
"s.Q ~ s.k.^.g.n.t.b.r 7 q P.D.0X$.B.0XR.zXtX2X%.3X&.eX3X2X3XeX9XgXkXQ.F a.q F.8X0XdX7.( d.7.cXW.2X0X].q 6 xX7 4 aX0XE.7.b.( ( l.",
") P t.M A f.d.Q ~ s.! 6.5.6 w.K.7 5 7 5 , q Y. .H.yX&.3.4XgXzXzXyXo 0 F ! y q U.wXrX<.( ( Z 0 yX4X<XH.7XrXwXrXtXyXMX9.6.f.t.s.^ ",
"Q ~ A s.~ d.[ f.k.~ y.( W c 7 o a b n ` r   J.C.3.rXV.BXgX2.gXl o A W ( t.f.<.rXV.pX7.f.6.g.1.MXH.9XtX3XZ.9X3X4XH.#.D N ) A Q [ ",
"y.d.~ g..X) S S y./.y.[ t.W C c m ) N W ^ Z #.D.R.1 5 o 5 o & & v ! W W C 7.d ].].#.A t.x.u.D a.MXyXQ.H.rXrXV.hXF 1.b.] t.d.[ l.",
"z.m.z.d.~ y.s.g..X[ [ t.t.N N ^ Q W C c ! <.pXS.].w V m U ( K !.s.N s.W ! 9.w R.6 b.n.(.[ /.~.f.a.1.hXV.V.1.1.a.@Xc.t.x.u.y.d.t.",
"Q N ] [ ~ s.~.& Q Q ) z.) [ [ Q k.0 c 6 d dXdXpXw ! 6.) | ' l.) Q [ s.6.4.sXmXT.w 4.(.] y.s.A b.u.a.a.C 7.M.7.u.k.t.t.z.z.n.~ d.",
"d.l [ d.c A W j N j g.] G [ x.x.k.C 9.[.O.K.8.E.V A t.~ | j ) W | ~ t.b.e.8.J.dXO.xX6.) [ y.A x.z.u.n..X] g.t.~ k.y.[ y.d.t./.n.",
"^.[ Q . t k.[ ] d.[ y.c.] z.] [ W 6.9 h 5 xXu q.! [ [ x | [ M W ^ d.) Q cX[., 4.0 k.f.x.n.y.d.n.t.m.y.] [ ^.| oXQ s.) x.g.y.t.k.",
"oXN | ' ( [ Q { d.{ c.m.z.{ c.[ [ ! T j.u u ) M N P N P B P [ ) N N N f.!.e.b.6.~.d.oX] g.y.n.[ ] z.+X.XoX{.| c.z.A t.[ g.y.t.g.",
"/.M Q d.[ ^.S i.} >X} { c.{ {.Q v A ~.Q P m ; j [ Q x ] S OX} oX[ ) XXi.y.n.t.t.l.y.y.x.y.i.d.) S Q /.y.{ %X| %X#X>X*Xg.~ d.C ~ ",
"k.~ [ Q y.S B VX{ {.oX%Xc.c.c.{ d.[ d.N Q (.[ t.[ ] [ Q } XX} } [ x S v.v..X] ] n.M.z.z.y.z.x.k.s.n..Xd.OX%X| } %XXX^.oXx.d.x.! ",
"t.( s.Q z.y.>X{..X{ | Q c.[ x.N [ j Q ) ) ( x S ] D ] ~ { [ M P v.^.oXW ! v -XvX=X@XnXDX7.y.( Q t.d.s.^.$XXX| ~.Q XXk.!.6.s.s.k.",
"X t.( N N B p.B } P W P P z ( % ^ W m W j t (.s.g.m.+Xl x M W b j & x v t.~ m.F l c t.l t.u.W z x m ~ s.} | h.L M P z U C n ' ! ",
"U ! W [ C Q m.] Q P M ; M b ; z z z t c h.n ; J U t - W (.& t t M P A +Xc z t t b + ; W s.~.g.x.& n K b K J * X t X &Xz % r % $ ",
"U ' ^ s.A s.y.t.| | k K b P ^ b n U m b.C $ $ - r p $ - i - ! / ^ M +X$ z T p b.T k ; z n Q s.W +Xk.k./ f.W % t n.+X+XD / I q.L ",
"m h.P z m g.GXm.k N M % P b z % s.nXvXnXt L T J p % O - p t b >Xm ~.b n L T q.; W :XK b ( ~ f.s.! vXvX*Xz.i.i.a.vX*X*Xu.( T T J ",
"% z m z W A @X+X$Xk l.) ) [ Q DX& X & & % % p n n a R U b b j % X t ; n : - $ ; L ^ | ' W s.^ ( c c G @X*X#X-X-XlXF D ~ 6.Q ^ ^ ",
"^ b h.^ C k.] vX|.=XM.D t.M.vX&XX b c N b J k L n J J L J J P J ' O K ; n p L J ; ` (.p h.h.U ^ n T m & @X@Xi.u.v A 6.s.k.0.' U ",
"p K n ^ U m D t.a.=XM.&X+X&Xv 0 = p n J K J ; : $ : = + = ; p ; * + : b - p i t T K ; ^ ; b b ' K T T C ( C n U 0.n j.( ( ( h.^ ",
"i p J J / i U n C v t M # i $ @ : p : b J : g : : - p J L : L - - i J + - a : - K p T q._ - $ ; L J n 0.p a ' q.5.T T - L J : p ",
"O + + + + $ . $ - $ - + : O + @ = * + = = $ O + X = X = + X O = * O + + O + i - O X + O O * O p + p @ : - - + + + J - + + - $ : "
};
