/* XPM */
static char *_fe1bc5920da4eede90957c7065eb8c9npjRGz8aEdAMB6vf[] = {
/* columns rows colors chars-per-pixel */
"64 64 255 2 ",
"   c #0E1101",
".  c #181806",
"X  c #1F1B10",
"o  c #250E04",
"O  c #25120C",
"+  c #2B140C",
"@  c #2B190A",
"#  c #331A0C",
"$  c #391B09",
"%  c #2D1A13",
"&  c #281914",
"*  c #331C14",
"=  c #381E15",
"-  c #1B2502",
";  c #272A05",
":  c #39240B",
">  c #283504",
",  c #343909",
"<  c #2C231B",
"1  c #292618",
"2  c #332314",
"3  c #3D2315",
"4  c #35221A",
"5  c #3B241B",
"6  c #342C1A",
"7  c #3D2A1C",
"8  c #372C14",
"9  c #2D3417",
"0  c #33341C",
"q  c #3A331B",
"w  c #353B1B",
"e  c #363616",
"r  c #3C2621",
"t  c #3C2B22",
"y  c #372A27",
"u  c #333323",
"i  c #3C3424",
"p  c #343923",
"a  c #3B3B24",
"s  c #3C3B2B",
"d  c #38362B",
"f  c #3A3B33",
"g  c #303023",
"h  c #411E0D",
"j  c #44250C",
"k  c #432514",
"l  c #462914",
"z  c #4B2B15",
"x  c #42261A",
"c  c #442A1D",
"v  c #4B2C1C",
"b  c #4A2615",
"n  c #522D1B",
"m  c #542E17",
"M  c #4D311C",
"N  c #46381A",
"B  c #54331D",
"V  c #5A341D",
"C  c #593618",
"Z  c #502F0D",
"A  c #653C1B",
"S  c #442C23",
"D  c #4A2D22",
"F  c #452E28",
"G  c #443323",
"H  c #4C3224",
"J  c #433A24",
"K  c #43342B",
"L  c #4C342A",
"P  c #443C2B",
"I  c #4C3A2C",
"U  c #4B3C24",
"Y  c #533424",
"T  c #5A3623",
"R  c #563924",
"E  c #5C3A24",
"W  c #52362A",
"Q  c #553B2C",
"!  c #5C3C2B",
"~  c #433B32",
"^  c #4C3B33",
"/  c #463736",
"(  c #543C33",
")  c #5B3E31",
"_  c #432F31",
"`  c #623D25",
"'  c #623D2B",
"]  c #603F30",
"[  c #39450C",
"{  c #394516",
"}  c #374908",
"|  c #3D4523",
" . c #3C442B",
".. c #3A4627",
"X. c #3C4635",
"o. c #444C1C",
"O. c #48491B",
"+. c #4C5B1C",
"@. c #475519",
"#. c #4C5813",
"$. c #63431D",
"%. c #71451A",
"&. c #4D6217",
"*. c #55661B",
"=. c #566D17",
"-. c #61781F",
";. c #444C25",
":. c #44442B",
">. c #4B432C",
",. c #434B2B",
"<. c #4B4C2D",
"1. c #474624",
"2. c #53422C",
"3. c #5D422D",
"4. c #57492A",
"5. c #4B5423",
"6. c #4D5B23",
"7. c #4D542B",
"8. c #47542A",
"9. c #535C23",
"0. c #52542C",
"q. c #535D2B",
"w. c #575527",
"e. c #434333",
"r. c #4B4434",
"t. c #444A34",
"y. c #4B4C33",
"u. c #4B443B",
"i. c #4E4A3C",
"p. c #45473A",
"a. c #544334",
"s. c #5D4234",
"d. c #584939",
"f. c #4D5433",
"g. c #4A5638",
"h. c #535D33",
"j. c #53533A",
"k. c #585839",
"l. c #64422C",
"z. c #6B442C",
"x. c #6D4A2D",
"c. c #664628",
"v. c #734C2D",
"b. c #764A2A",
"n. c #75532D",
"m. c #634433",
"M. c #6A4533",
"N. c #644A33",
"B. c #6C4A34",
"V. c #654A3B",
"C. c #6B4C3A",
"Z. c #64473A",
"A. c #724C34",
"S. c #724D3A",
"D. c #774C35",
"F. c #675439",
"G. c #74523C",
"H. c #7C5B3C",
"J. c #785437",
"K. c #64562C",
"L. c #4E6124",
"P. c #556323",
"I. c #5B6B23",
"U. c #54632C",
"Y. c #5B652C",
"T. c #5D6C2C",
"R. c #596724",
"E. c #5E7226",
"W. c #5B6434",
"Q. c #5C6A33",
"!. c #5B643C",
"~. c #5D6A3A",
"^. c #546236",
"/. c #5F7237",
"(. c #636D2C",
"). c #616C25",
"_. c #63732C",
"`. c #667A2B",
"'. c #6B7C2C",
"]. c #657826",
"[. c #626C33",
"{. c #626C3B",
"}. c #66683A",
"|. c #647334",
" X c #6B7B33",
".X c #6A753B",
"XX c #6C7B3B",
"oX c #667438",
"OX c #727B3B",
"+X c #727938",
"@X c #7E603C",
"#X c #494B43",
"$X c #594B44",
"%X c #4D5444",
"&X c #545343",
"*X c #5B5543",
"=X c #545A43",
"-X c #595B49",
";X c #545651",
":X c #654B44",
">X c #675845",
",X c #735441",
"<X c #7A5541",
"1X c #7C5B44",
"2X c #755B46",
"3X c #7C5E53",
"4X c #5C6442",
"5X c #5B6847",
"6X c #5D6651",
"7X c #5F7340",
"8X c #646344",
"9X c #636C43",
"0X c #6D6C4D",
"qX c #676748",
"wX c #796448",
"eX c #657243",
"rX c #6A7444",
"tX c #6D7C44",
"yX c #6B734B",
"uX c #677549",
"iX c #747948",
"pX c #6A6D53",
"aX c #646856",
"sX c #697455",
"dX c #737C52",
"fX c #747C5C",
"gX c #777858",
"hX c #756654",
"jX c #747564",
"kX c #845A38",
"lX c #81582A",
"zX c #88633C",
"xX c #956A3F",
"cX c #845B44",
"vX c #805F50",
"bX c #836244",
"nX c #896649",
"mX c #956A47",
"MX c #8A6955",
"NX c #937551",
"BX c #A77A54",
"VX c #937C6E",
"CX c #6C822C",
"ZX c #6E8234",
"AX c #6D823A",
"SX c #73843B",
"DX c #748635",
"FX c #768447",
"GX c #788458",
"HX c #72864F",
"JX c #798565",
"KX c #7D8A6D",
"LX c #868A54",
"PX c #848C4C",
"IX c #878C67",
/* pixels */
"x L H H W ) ' M.] D b ] ' ] ] kX' V Q ! ! ] Y v D D x D D D S c 5 L F a.L H ( K t 5 ( 7 z N v 3 3 S W H S Q G 3 5 L c 5 x G H 3 ",
"x j l l k m.n k h h m V n h n n Q nXV B.m.E n Y h k x v x W D H 3 G # H c @ o S S # c 3 H.c.N.c c c H 3.3 c v 3 3.3 3 v l l Y S ",
"V z bXC E A V ` T m ' ' ` ' b ' <XC ' D.T ' n n z R v s.Z.H L F F.s.V.Q c ( d.! >Xc 7 ,Xs.N.C.3.C.A.C.! ! ! C.n m.l l.3.H.nX$ Y ",
"A.` zXlXmXkXb.b.D.' D.' ' cXm ' z.D.A mXD.S.nXM.G.M.j s.) ,XF 2Xs.W V.V.s.C.Y ) 3.M C.C.B.C.H.' B.B.A.` m ` M.B 3.j n.x.A.C v W ",
"M.V x.xXkXxXmXlXxXb.mXD.b.D.b.BXD.' kXkXD.A.z.x.D.cXA.T Q d.>X$X^ :Xd.) 3.B.3.G.MXN.B.E cXA.A.` V v.kXA.c.J.c.C zXJ.xXv.` ` R D ",
"cXA.x.v.lX%.lXzXxXBXA kXkXb.D.D.A mXmXkXx.B.V B.J.G.G.bXM N d.qX*XV.>XF.N.G.N.3.G.B.M.B.B.' A.H.H.zXkXmXmXmXnXv.%.zXH.A b ' ! Y ",
"1XB.S.c.zXxX%.xXBXb.xXmXkXBXmXBXBXNXH.x.kX1Xc.N.C.F.F.O.w.FXPXOX}.LXNX9XK.n.K.4.C.Z.C.,XE v h M.C.c.J.z.A.` ` V $.zXkXj T T T n ",
"1XS.' z %.mXkXkXkXmXkXlXlXxXxXA kXzXx.B.c.K.K.gX>X8XK.LXLXLXOX(.(.(.9.9.FXLX+XPX}.N wXwX3.C.Z.B.<XG.A.B.<Xn cXM.zXzX` M.B.M.] T ",
"<XC.M.l.c.NXkXkXD.b.mXD.cXcXD.D.cXkXn 3.w.PXtXdXGX{.iXiX{.<.k.5.O.+XiXSXDX'.'.DXPXPXNXLXO.N.C.,XB.n ` M.,XB.M.x.v.@Xc.T R D.S.n ",
"B G.,Xl.c.A.H.H.D.D.D.<XD.n ` mX,XR Y 4.5.oX^.U.[ tX.X!.w gXqX^.[.).R.+XXX(.(.).).).(.}.k.0X4.hXhX2X<XZ.S.M.m.l.H.n.B.G.Z.vXS.B.",
"R m.Q s.3.E wXv.' b T T ] ] n b L K J j.<.e e e h.!.4X9 d P 5XeXT.P.1.J 0 w ^., Q.{ q 8 <.e e u i 4 S W D F = k F.B c W D c c D ",
"s.Z.s.) ! R nXm m n D.b ] b b x aXp.j.- a =X*Xe.{ 9 s u  .k.^.6.~.iXk.u < ~ t.yXeXqXu.d i 8Xj.=X~ f ^ H F D W D z l 3 x $ k * = ",
"x v k v x M <XE T l.C.m.W M 1.U.h.GXh.f.g.f 1   8.~.-X,.uXFXsXg.p j.9X8.u u.4 6  .h.f.9 2 < & & g s #Xt F 5 s.D R 2Xl c T v c c ",
") Z.! Q ! M G.E ] ' W 2XD 2XGX{.L.eXpX9 s   f ;X^.~.p 9 +.&.8.g.d u 8.7XpX:.( i u g.;.=XG d f p.j.s g y S F ( ( R 1XR M 3.1XR F ",
"c # D T Y ! C.l.m.v W Q 8Xh.t.p h.yXf d . X d jXqX;.5X4XXXT.@.9X5Xg.t.g.; !.P %X0 w eXdXd #Xp.%X%XsX6Xs G x W Q M nXv M j b Y c ",
"x ) b ' k B N.k Y c S J 9X| p w { h.u f u 1 9 w { ;...h.5.6.W.W.5.sX..X.8.tX> qX!.h.{ g.X.g.;X ..... .fX6 3 D c U M B.c.wXwXH D ",
"W v C.E R v wX$ x # 2 ; 9 e rXP.@.@.; a | | { 9XQ.@.{ dXuXh.{.9XoXoX^.| /.OX|.T.Q./.g.X.^.h.,.=X4X4X!.w 2 K F 7 Q c G.3.Y : # D ",
"D b V z n R Y D H a.8XF.k.<.~.T.XXQ.<.9 h.^.> {.I.T.T.!.4X| w 0./.|./.L.E.E._.XXQ.7. .s h.~.f.w 9 ,.;.t.6 a.@ * * 3 : s.W W H Q ",
"x b G.C j c.l S $XV.d.9 r.e. .8XqX9 1 . dX~.5.|.R._.*.~.5Xe.P >.oXQ.oXT.&.R..X9X:.s 5 a.a qXyX;.i &XX.4XeXyXa.L a.x m.! D ) ) W ",
"x = ' c.zX3.3 4 d r.qXj.a g 9 y.%Xu 1   { U.R.T.P._.T.Y.9X;.P q w.P.R.*.FX.XrXa ^ i a.U k.{ {.W.P u f aX^.~.k.k.s.c ) c C.Q W c ",
"= n Y B.v x 7 t &Xt.e.d i 1 h.!.d 1 X.{ T.|._._.[.; T.oX.X[.w.[..XR.(.(.9.[.s g d r.q }.oXFXXXW.p %Xe.6XfX..oXyXJ S Q S H x * D ",
"v = ! v C.s.2.2 %X .g.u P <.{.9X..=Xf.^.T.}  X|.[.(.R.I.)._. XT.R.).P.P.T.W. .&Xu.k.9X|.CXCX_.oX4X& X X.u k.eXeX<.^ 3 W L x W W ",
"Y k n C.v 2.1.0Xh.g.w 9XsX| 5.[.^.- |.R._.#.].*.*.+.].`.]._.(.6.[.(.|.P.9.- - iXFXXX X_._.*.`._.T.U.sXX.sXX...sXpXU H H ( W L 5 ",
"] ' T E B.c.4.iXsX .uX~./.;.9X; HXoXP.[.(.+.I.FX_.I.T._.(.*.9.@.@.#.+X).R.|._._.*.`.'.T.U.W..X@.Y.~.=Xf %XX.X. .pXi 4 s.W H L W ",
"' <XnXcXMXC.w.[.9  .4X> HX^.U., 8 7 J N 1.0.W.(.I.I.R.- #.E.R.P.P.(.'.].+X].-.&.=.&.I.o.8.-X&X~ 5XX.;Xf 5XX.g...5X:.F v W W ) D ",
"` ` ' B.,Xs..X{...fXuX~.{ FXtXO.I ( ( ( K U k.5.XX|.XX_._.ZX X|.). X'.=.CXDXDX].DXDX[.F.a u.f / X.6X;XX.5X../.7X..4XL L D D D ) ",
"S.E cXZ.Q k.GXQ.L.GX| 8.{ FXiXN v c F D ) s.i y.HXE. X#.]. X X).+X'.(.].'.).DXSX'.}.F.K G L S I  .sX7X{ ....~.~.{ uX~ / H D D T ",
"E <X] ,XV.<.yX| h.8.U.oX+..XiXw.3.Z.W ! ! W S I 9.FX=.#.&.I.*.*.'.).).(.+X_.(.O.iXK.*X( L m.x F &Xi.HX/.uX^...h.oXeXe._ D D ] T ",
"! ' Y v N k.JX| 6X..XX*.E.FXy.V.M.T Z.' T c Q Z.N XX*.=.ZXDX+X X+X'.+X]._.|.K.F.F.N 3.C.! W ) x d.U W.~.g.=Xd t.eXyX/ / ] ] ] ] ",
"T B.M.! F.iXHX..#Xt. XDXCXFXI :XZ.E T T b C.] ] 2.rX XCX].CX'.=.DX).'.-.).OXk.L 3.l.B C.] ] Y W V.V.0.sX%X-X#Xd 9Xi./ / ) ] n M.",
"B.m.T B.$.iXiX5XX.f [.].CXtXK :X] ' B.T m.! ' ] Q 1.+XCXCX-.-.CX].'.CX'.].(.N.d.C.' Z.n Z.m.! ) ] V.d.=XaX&Xu.K pX .$X$XW C.M.' ",
"] m.m.C.e iXLX1.~ d h.tX8.9XP :XW ] Z.! Q ] D ) d.>.}.'.DXSXDXDX+X+XDXPX'.+XrXs.Y :X] c Z.! m.) ! ,Xd.j.6Xe.K $X6X-Xu./ ) Z.] vX",
"D k v c G k.r.P K ^ j.:.X f r 4 = * S O @ * 3 & < i o.; 9.@.O.- , Z ; , , ).N.8 H = * 5 = = * S * % 6 :.f.a @ 4 i.p.y 4 & O r x ",
"k D ! W $Xr.0X>.t ^ ~ aXp.#Xr r * S S F * r 4 r & j.iX@., o.O.<.w.5.1.{ O.9..X; t r % * r = t 5 r % 6 j.t.t.t i u ~ r y & 4 ( = ",
"m.m.! Q S d.rX{.i.d i.*XpXp./ H * / F % 5 4 r t r.<.eX5.o.5.O., > 5.+.6.@.+.[.<.G K L 3 r d.L r L K q y.t.p < y a -Xi y 4 r % O ",
"T C.W W ( N W.@.e.y y P JXe L u.S S S S r * 4 2 w ^.P.> [ > rX{ Y.T.{ +.Y.+.@.q.0 & r t 4 5 r = 3 2 i =Xt.p.f < P i.O & 4 % % % ",
"k R m.a.a.*X{.;.g & g p.uX8.i.y ( W S = / t 2 q }.T.@.+.|.L.6.@.- [ 6., } T.+./.!.u 1 & = 4 % = 4 I p sX- %Xu f d < $Xy F F + r ",
"m.s.! H i r.8X9Xy.    X.q.HXs / * F r r ^ *Xy.[.{.o.T.6.AX@.+.@.[.q.U.@.T.*.ZX@.tX- a & d 6 t % r t  .^.8.5Xt.aXf / y _ F S r ) ",
"] B.Y W ( P 0X~.8.{   8.,.g.X.g L ( _ y | !.~.> T.P.5.> . | } &.[.Q.@.5.+.T.E./.> 5.o.7.:.a 9 < y y 8.W.{ f.sXi.< #X_ _ = = = 5 ",
"' Y n Q W Q }.;.7XeX, 9XX.%Xg.{ 4 r ;Xe.!.P.R.T._.L.9.- 5.{ T.&., (.{ ;.8.U.R.=.R.P.R.R.Q.eX4Xe i.s <.o.; yX9 u #Xf / / F L x F ",
"cXS.<XS.1X1Xk.GX8.HXXXAXX.#XsX..$X$Xe.4X6.SX'._.=.'.T.T.T.T.CXCXE.|.dX8X0XiX+X'.DX].'.DXZXZXFX{.yX0.yX{.tXuXd ;XjXf I Q ) W W ) ",
"' ` <XV S.M.N fXuX@.T.HXX.X.7XAXk.P | U._.ZX].=.XXXX/.T.E.CXCXCX-.|.0.2.d.1.OX'.'.'.I.`.-.CX]. X[.yXGX;.eX .X.;XaXf Q R R Y n D ",
"cX] ' ' ` C.8 gXtX{ } FXg.HXAXAXoXT.> #.CX-.CX XyX<.;.dXR.&.CX&.CX+XU s.a.s._.DXDXDXT.FX'. XY.~.tXrX0Xw ;.dX:.jX;X#XZ.' c.' n c ",
"] T ` M.C.,XF.4.GXHX@.HX7X^.U./.+.+.iXOX/.SX*.U.4X6 a !. XE.CXCXDX+X4.3XhX1.SXCXCXZXFX} XXXXiX}.{ HXy.y.{ 4X,.pXe.L Q H.MX<X! C.",
"E n ' b B M.s.U -XpXQ.T.HX .0 J y.0.P a 8.{.|.> P ~ 8 w.|.=.CX].&.).1.a 1.W..XeXAXAXuX{ FX~.i.p.w pXP J .XiXfXu.a.s.bXc.c.` l.T ",
"T ` V NXNXM.! V.$X&XJXHX5Xp u.y y.P f ^ e 0.(.~.s K :.rX*.#.'.|.DXSXk.4XdXyX9X{ { HX~.dXeX:.-Xu.sXj.k.F.[.[.>.P W V A.Z bXJ.E ! ",
"` b.x.x.cXl.c.V V.d.sXHX^...;Xu k.fXy.K N @X+.(.>.8 N .X&./.g...{ h.Q.{.rX}.P >.,.!.{.iX4.d.U r.fX| 1.0.gX1.2.Z.c.A.H.E ` M.l.B.",
"D.nXB.x.A l.bXx.1X4.9 X.fX^.6X .{ !.qXq 2.N FX).rX8 e O.|.FX .u GXh.HX^.9.<.>X>X9 uXyX>.d.3X>X0X6X .fX}.qXF.2X1XNXkXx.v.B.z.M.M.",
"V z.A z.J.c.H.$ B R Q >.{ 4XsXsXKX{ h., z O.PX+X+XO.0.o.LXHX .jX0XqX;.fXGX9 g.GX7X6X6X#X$X4.N sX5XjX^.yXJ 2X! N.v.nXc.A.A.D.E M.",
"' b 1XkXv.C B E n h Z.( pXfX....qX;.7.0Xc >XO.[.@X}.gX0Xk.> {.o.>.>.4.g...5XfXh.{ HX%X#Xs 0XGX9X6XX.dX9Xa.C.m.V v.zXE M.B.l.1X,X",
"kXl.B o : C.c.mXz.' ' ,X:.JXGX8.q 8 0.pXi.&XF.0X4X-X*Xi i 0XR.Y.>.d.sX{ JXX.%XX.L.HXsXjXfXLXuX8.y.gXgXN l.<XM.<XC zXE A.B.z.M.B.",
"cXn ] ] ! ` C kXz.z.kX,Xd.8XIX{ 2.U J qX&Xs :.6 P >X&Xi i a }.XXr.u sX6X=X{ X.d HXHXf.w { { JX| a qXF.wXcXD.M.S.C J.c.` B.M.l.M.",
"1Xv E ] ' kXC nX` ' ' z.G.3.q fXF.o.gXy.j.i.6 6 1.0.>.j.r.:.uXIXdX=X,.k.y.r.;XKXpXy.&Xk.I.PXGXdX>XU 2Xl.M.H.z.A.v.H.m c.` z.v E ",
",XT ' T ' V Z kXV ` ` ' A.C.>X>.}.gXsX*Xe.P i >X0XgXk.pXpXi.5X| w y.aXIXjX&XX.#Xp.r.K <.GXFXQ., d.,X1Xx.z.A.' ' x.A.nXG.A.M.,XR ",
"! ] ] Y D.z.mXn.cX' ] T ' ! ,XD ! 2 / ;XhX>X4.k.jX;XK ~ 0XGX5X,.>.d.hXK f ;X6XsXaX>XqXIXyXJ 2.M m.M.M.,X,X<Xm.C.E 3.bXY M.l.m.C.",
"o ! ' n m z.c.m ` T B n n j E $ Q H F _ < 4 k.y.i / d y e ;.k.:.: @ 7 G d f X. .1 =X0., a c W z j M R l.T l.m.Y 3 v j M v c ! W ",
"H R W l.Z c.$.3.T n l $ z l : j 3 x 3 S 5 % 8 qX-Xg y d 0 ; &Xp.7.W.:.&X#Xf X.p.&Xg s ~ :XH z : $ N M j j M $ o 3 o M A.$ # # * ",
"H ! R l.nXj c.bXz.M.M B.M G.wXG.x H # S 3 @ % < u.p.1 $Xk.i 1 1 eXh.f.f p.aX*X%Xe.4 < r c W N.wXF.s.wXC.wX2XQ G L l 3.F.H.N s.G ",
"v M.Z K.n.zXzX@X` A.B.$ H v Y # D Q R wXl.N H S 3 % & d L >.8X0X8XP r t K L $X* L VXF l H.wXH.N.R ! R l.B.N.N.N.H.G.wXc.@XH.Y c ",
"$ 3 F.$.@X$.Z 3.x.$ b 3 c l 3 L $ + $ $ N.$ 3 c r S L K 7 7 : : . y 4 r = * @ = D R s.! @X$.C 3.l v s.c W c H B R B C N.H.v.l.W ",
"Q k bXA.m C.x.N.j b Q n x 3 S x o N.l M ] x h F S S F F S S D c * % F = r 4 H S = Q 3Xk @Xc.C A.c W W # Y S D Z.Y H 3.M.c.F.B.M ",
"3 H j M M v W ,Xx F x W H c 3 7 @ ( G C.D D = r * = + + # = x = + O = x * 5 4 3 W S 3 H : x.wXwXv L L H a.L c W s.c V.Q 2.! C.Q ",
"4 7 c J I 4 F S D D = F O r * % * 5 = c D 5 r = = * = F F = F * % 4 S + * 5 4 * F 3 L a.I # # 3 H S 5 d.3 5 ( d.( L H = F S * 3 ",
"O + + + + + o # = + = + = O + & % % O % + + O O o + o # o O O % % O O % o % 3 * + o + @ O % O 5 + = * = * = + + @ c * + # * % = "
};
